<mxfile host="app.diagrams.net" modified="2023-09-18T09:10:04.064Z" agent="Mozilla/5.0 (Windows NT 10.0; Win64; x64) AppleWebKit/537.36 (KHTML, like Gecko) Chrome/116.0.0.0 Safari/537.36" version="21.3.7" etag="ap2ZelPHnXOuEMq57aM1" type="github">
  <diagram name="Page-1" id="8nnyvwg1OJDwXkxr4fhR">
    <mxGraphModel>
      <root>
        <mxCell id="0" />
        <mxCell id="1" parent="0" />
      </root>
    </mxGraphModel>
  </diagram>
</mxfile>
